<svg width="176" height="62" xmlns="http://www.w3.org/2000/svg" fill="none">

 <g>
  <title>Layer 1</title>
  <path id="svg_1" stroke="white" fill="white" d="m0.5,2.93331c0,-1.30606 1.04415,-2.16231 2.0669,-2.16231c0.94842,0 1.82485,0.78265 2.06666,2.2019c-0.00826,0.67128 -0.22658,1.19191 -0.5656,1.54353c-0.34407,0.35687 -0.85022,0.57918 -1.50106,0.57918c-1.21569,0 -2.0669,-1.05637 -2.0669,-2.1623z"/>
  <path id="svg_2" stroke="white" fill="white" d="m21.8054,2.93331c0,-1.30605 1.0442,-2.16231 2.067,-2.16231c0.9483,0 1.8247,0.7825 2.0666,2.20149c-0.0206,1.28396 -1.0541,2.12312 -2.0666,2.12312c-1.2158,0 -2.067,-1.05638 -2.067,-2.1623z"/>
  <path id="svg_3" stroke="white" fill="white" d="m42.8541,2.93331c0,-1.30605 1.0442,-2.16231 2.067,-2.16231c0.6508,0 1.157,0.22231 1.5011,0.57918c0.3456,0.3585 0.5658,0.8927 0.5658,1.58313c0,1.30604 -1.0441,2.1623 -2.0669,2.1623c-1.2158,0 -2.067,-1.05638 -2.067,-2.1623z"/>
  <path id="svg_4" stroke="white" fill="white" d="m64.1597,2.93331c0,-1.30606 1.0441,-2.16231 2.0669,-2.16231c0.6508,0 1.157,0.22231 1.501,0.57918c0.3457,0.3585 0.5659,0.8927 0.5659,1.58313c0,1.30605 -1.0442,2.1623 -2.0669,2.1623c-1.2157,0 -2.0669,-1.05637 -2.0669,-2.1623z"/>
  <path id="svg_5" stroke="white" fill="white" d="m85.4651,2.93331c0,-1.30605 1.0442,-2.16231 2.0669,-2.16231c0.6509,0 1.157,0.22231 1.5011,0.57918c0.3457,0.3585 0.5659,0.8927 0.5659,1.58313c0,1.30604 -1.0442,2.1623 -2.067,2.1623c-1.2157,0 -2.0669,-1.05638 -2.0669,-2.1623z"/>
  <path id="svg_6" stroke="white" fill="white" d="m106.771,2.93331c0,-1.30605 1.044,-2.16231 2.066,-2.16231c0.651,0 1.157,0.22231 1.502,0.57918c0.345,0.3585 0.565,0.8927 0.565,1.58313c0,1.30604 -1.044,2.1623 -2.067,2.1623c-1.215,0 -2.066,-1.05638 -2.066,-2.1623z"/>
  <path id="svg_7" stroke="white" fill="white" d="m128.076,2.93331c0,-1.30606 1.044,-2.16231 2.067,-2.16231c1.023,0 2.067,0.85625 2.067,2.16231c0,1.30605 -1.044,2.1623 -2.067,2.1623c-1.216,0 -2.067,-1.05637 -2.067,-2.1623z"/>
  <path id="svg_8" stroke="white" fill="white" d="m149.381,2.93331c0,-1.30605 1.045,-2.16231 2.067,-2.16231c1.023,0 2.067,0.85626 2.067,2.16231c0,1.30604 -1.044,2.1623 -2.067,2.1623c-1.215,0 -2.067,-1.05638 -2.067,-2.1623z"/>
  <path id="svg_9" stroke="white" fill="white" d="m170.687,2.93331c0,-1.30606 1.044,-2.16231 2.067,-2.16231c1.023,0 2.067,0.85625 2.067,2.16231c0,1.30605 -1.044,2.1623 -2.067,2.1623c-1.216,0 -2.067,-1.05637 -2.067,-2.1623z"/>
  <path id="svg_11" stroke="white" fill="white" d="m0.5,21.5541c0,-1.306 1.04414,-2.1622 2.0669,-2.1622c0.45956,0 0.91154,0.2383 1.29683,0.6664c0.37474,0.4164 0.65181,0.9782 0.76972,1.5437c-0.00994,0.6672 -0.22785,1.185 -0.56548,1.5352c-0.34408,0.3569 -0.85022,0.5792 -1.50107,0.5792c-1.2157,0 -2.0669,-1.0564 -2.0669,-2.1623z"/>
  <path id="svg_12" stroke="white" fill="white" d="m21.8054,21.5541c0,-1.3059 1.0442,-2.1622 2.067,-2.1622c0.4595,0 0.9115,0.2383 1.2968,0.6664c0.3747,0.4163 0.6517,0.9778 0.7697,1.5432c-0.0249,1.2793 -1.0561,2.1149 -2.0665,2.1149c-1.2158,0 -2.067,-1.0564 -2.067,-2.1623z"/>
  <path id="svg_13" stroke="white" fill="white" d="m42.8541,21.5541c0,-1.3059 1.0442,-2.1622 2.067,-2.1622c1.2157,0 2.0669,1.0564 2.0669,2.1622c0,1.306 -1.0441,2.1623 -2.0669,2.1623c-1.2158,0 -2.067,-1.0564 -2.067,-2.1623z"/>
  <path id="svg_14" stroke="white" fill="white" d="m64.1597,21.5541c0,-1.306 1.0441,-2.1622 2.0669,-2.1622c1.2157,0 2.0669,1.0564 2.0669,2.1622c0,1.306 -1.0442,2.1623 -2.0669,2.1623c-1.2157,0 -2.0669,-1.0564 -2.0669,-2.1623z"/>
  <path id="svg_15" stroke="white" fill="white" d="m85.4651,21.5541c0,-1.3059 1.0441,-2.1622 2.0669,-2.1622c1.2158,0 2.067,1.0564 2.067,2.1622c0,1.306 -1.0442,2.1623 -2.067,2.1623c-1.2157,0 -2.0669,-1.0564 -2.0669,-2.1623z"/>
  <path id="svg_16" stroke="white" fill="white" d="m106.771,21.5541c0,-1.3059 1.044,-2.1622 2.066,-2.1622c1.216,0 2.067,1.0564 2.067,2.1622c0,1.306 -1.044,2.1623 -2.067,2.1623c-1.215,0 -2.066,-1.0564 -2.066,-2.1623z"/>
  <path id="svg_17" stroke="white" fill="white" d="m128.076,21.5541c0,-1.306 1.044,-2.1622 2.067,-2.1622c0.473,0 0.992,0.2506 1.405,0.679c0.412,0.4273 0.662,0.974 0.662,1.4832c0,1.306 -1.044,2.1623 -2.067,2.1623c-1.216,0 -2.067,-1.0564 -2.067,-2.1623z"/>
  <path id="svg_18" stroke="white" fill="white" d="m149.381,21.5541c0,-1.3059 1.045,-2.1622 2.067,-2.1622c0.473,0 0.992,0.2506 1.405,0.679c0.412,0.4273 0.662,0.974 0.662,1.4832c0,1.306 -1.044,2.1623 -2.067,2.1623c-1.215,0 -2.067,-1.0564 -2.067,-2.1623z"/>
  <path id="svg_19" stroke="white" fill="white" d="m170.687,21.5541c0,-1.306 1.044,-2.1622 2.067,-2.1622c0.472,0 0.992,0.2506 1.405,0.679c0.412,0.4273 0.662,0.974 0.662,1.4832c0,1.306 -1.044,2.1623 -2.067,2.1623c-1.216,0 -2.067,-1.0564 -2.067,-2.1623z"/>
  <path id="svg_21" stroke="white" fill="white" d="m4.63381,40.4459c0,1.2115 -0.94243,2.1623 -2.06691,2.1623c-1.12447,0 -2.0669,-0.9508 -2.0669,-2.1623c0,-1.2116 0.94243,-2.1623 2.0669,-2.1623c1.12448,0 2.06691,0.9507 2.06691,2.1623z"/>
  <path id="svg_22" stroke="white" fill="white" d="m25.9393,40.4459c0,1.2115 -0.9424,2.1623 -2.0669,2.1623c-1.1245,0 -2.067,-0.9508 -2.067,-2.1623c0,-1.2116 0.9425,-2.1623 2.067,-2.1623c1.1245,0 2.0669,0.9507 2.0669,2.1623z"/>
  <path id="svg_23" stroke="white" fill="white" d="m42.8541,40.4459c0,-1.3061 1.0442,-2.1623 2.067,-2.1623c0.6508,0 1.157,0.2223 1.5011,0.5792c0.3456,0.3585 0.5658,0.8927 0.5658,1.5831c0,1.306 -1.0441,2.1623 -2.0669,2.1623c-0.6509,0 -1.157,-0.2223 -1.5011,-0.5792c-0.3457,-0.3585 -0.5659,-0.8927 -0.5659,-1.5831z"/>
  <path id="svg_24" stroke="white" fill="white" d="m64.1597,40.4459c0,-1.3061 1.0441,-2.1623 2.0669,-2.1623c0.6508,0 1.157,0.2223 1.501,0.5791c0.3457,0.3586 0.5659,0.8928 0.5659,1.5832c0,1.306 -1.0442,2.1623 -2.0669,2.1623c-0.6509,0 -1.157,-0.2223 -1.5011,-0.5792c-0.3456,-0.3585 -0.5658,-0.8927 -0.5658,-1.5831z"/>
  <path id="svg_25" stroke="white" fill="white" d="m85.4651,40.4459c0,-1.3061 1.0442,-2.1623 2.0669,-2.1623c0.6509,0 1.157,0.2223 1.5011,0.5792c0.3457,0.3585 0.5659,0.8927 0.5659,1.5831c0,1.306 -1.0442,2.1623 -2.067,2.1623c-0.6508,0 -1.157,-0.2223 -1.5011,-0.5792c-0.3456,-0.3585 -0.5658,-0.8927 -0.5658,-1.5831z"/>
  <path id="svg_26" stroke="white" fill="white" d="m106.771,40.4459c0,-1.3061 1.044,-2.1623 2.066,-2.1623c0.651,0 1.157,0.2223 1.502,0.5792c0.345,0.3585 0.565,0.8927 0.565,1.5831c0,1.306 -1.044,2.1623 -2.067,2.1623c-0.65,0 -1.157,-0.2223 -1.501,-0.5792c-0.345,-0.3585 -0.565,-0.8927 -0.565,-1.5831z"/>
  <path id="svg_27" stroke="white" fill="white" d="m128.076,40.4459c0,-1.3061 1.044,-2.1623 2.067,-2.1623c1.023,0 2.067,0.8562 2.067,2.1623c0,1.306 -1.044,2.1623 -2.067,2.1623c-0.651,0 -1.157,-0.2223 -1.501,-0.5792c-0.346,-0.3585 -0.566,-0.8927 -0.566,-1.5831z"/>
  <path id="svg_28" stroke="white" fill="white" d="m149.381,40.4459c0,-1.3061 1.045,-2.1623 2.067,-2.1623c1.023,0 2.067,0.8562 2.067,2.1623c0,1.306 -1.044,2.1623 -2.067,2.1623c-0.65,0 -1.157,-0.2223 -1.501,-0.5792c-0.345,-0.3585 -0.566,-0.8927 -0.566,-1.5831z"/>
  <path id="svg_29" stroke="white" fill="white" d="m170.687,40.4459c0,-1.3061 1.044,-2.1623 2.067,-2.1623c1.023,0 2.067,0.8562 2.067,2.1623c0,1.306 -1.044,2.1623 -2.067,2.1623c-0.651,0 -1.157,-0.2223 -1.501,-0.5792c-0.346,-0.3585 -0.566,-0.8927 -0.566,-1.5831z"/>
  <path id="svg_31" stroke="white" fill="white" d="m4.63381,59.0716c0,1.2116 -0.94243,2.1623 -2.06691,2.1623c-1.12447,0 -2.0669,-0.9507 -2.0669,-2.1623c0,-1.2116 0.94243,-2.1623 2.0669,-2.1623c1.12448,0 2.06691,0.9507 2.06691,2.1623z"/>
  <path id="svg_32" stroke="white" fill="white" d="m25.9393,59.0716c0,1.2116 -0.9424,2.1623 -2.0669,2.1623c-1.1245,0 -2.067,-0.9507 -2.067,-2.1623c0,-1.2115 0.9425,-2.1623 2.067,-2.1623c1.1245,0 2.0669,0.9508 2.0669,2.1623z"/>
  <path id="svg_33" stroke="white" fill="white" d="m42.8541,59.3377c0,-1.306 1.0442,-2.1622 2.067,-2.1622c0.6508,0 1.157,0.2223 1.5011,0.5792c0.3456,0.3584 0.5658,0.8926 0.5658,1.583c0,1.3061 -1.0441,2.1623 -2.0669,2.1623c-1.2158,0 -2.067,-1.0564 -2.067,-2.1623z"/>
  <path id="svg_34" stroke="white" fill="white" d="m64.1597,59.3377c0,-1.306 1.0441,-2.1622 2.0669,-2.1622c0.6508,0 1.157,0.2223 1.501,0.5791c0.3457,0.3585 0.5659,0.8927 0.5659,1.5831c0,1.3061 -1.0442,2.1623 -2.0669,2.1623c-1.2157,0 -2.0669,-1.0563 -2.0669,-2.1623z"/>
  <path id="svg_35" stroke="white" fill="white" d="m85.4651,59.3377c0,-1.306 1.0441,-2.1622 2.0669,-2.1622c0.6509,0 1.1571,0.2223 1.5011,0.5792c0.3457,0.3584 0.5659,0.8926 0.5659,1.583c0,1.3061 -1.0442,2.1623 -2.067,2.1623c-1.2157,0 -2.0669,-1.0564 -2.0669,-2.1623z"/>
  <path id="svg_36" stroke="white" fill="white" d="m106.771,59.3377c0,-1.306 1.044,-2.1622 2.066,-2.1622c0.651,0 1.157,0.2223 1.502,0.5792c0.345,0.3584 0.565,0.8926 0.565,1.583c0,1.3061 -1.044,2.1623 -2.067,2.1623c-1.215,0 -2.066,-1.0564 -2.066,-2.1623z"/>
  <path id="svg_37" stroke="white" fill="white" d="m128.076,59.3377c0,-1.306 1.044,-2.1622 2.067,-2.1622c1.023,0 2.067,0.8562 2.067,2.1622c0,1.3061 -1.044,2.1623 -2.067,2.1623c-1.216,0 -2.067,-1.0563 -2.067,-2.1623z"/>
  <path id="svg_38" stroke="white" fill="white" d="m149.381,59.3377c0,-1.306 1.045,-2.1622 2.067,-2.1622c1.023,0 2.067,0.8562 2.067,2.1622c0,1.3061 -1.044,2.1623 -2.067,2.1623c-1.215,0 -2.067,-1.0564 -2.067,-2.1623z"/>
  <path id="svg_39" stroke="white" fill="white" d="m170.687,59.3377c0,-1.306 1.044,-2.1622 2.067,-2.1622c1.023,0 2.067,0.8562 2.067,2.1622c0,1.3061 -1.044,2.1623 -2.067,2.1623c-1.216,0 -2.067,-1.0563 -2.067,-2.1623z"/>
  <rect id="svg_41" height="48.29268" width="108.29267" y="-60.4634" x="-124.96341" stroke="#000" fill="#fff"/>
 </g>
</svg>